PathFileType	4	(X/Y/Z)	/Users/visionmauri/Downloads/Videos/OAW10-top_Sports2D/OAW10-top_Sports2D_m_person00.trc
DataRate	CameraRate	NumFrames	NumMarkers	Units	OrigDataRate	OrigDataStartFrame	OrigNumFrames
25.0	25.0	6	22	m	25.0	877	1754
Frame#	Time	Hip			RHip			RKnee			RAnkle			RBigToe			RSmallToe			RHeel			LHip			LKnee			LAnkle			LBigToe			LSmallToe			LHeel			Neck			Head			Nose			RShoulder			RElbow			RWrist			LShoulder			LElbow			LWrist			
		X1	Y1	Z1	X2	Y2	Z2	X3	Y3	Z3	X4	Y4	Z4	X5	Y5	Z5	X6	Y6	Z6	X7	Y7	Z7	X8	Y8	Z8	X9	Y9	Z9	X10	Y10	Z10	X11	Y11	Z11	X12	Y12	Z12	X13	Y13	Z13	X14	Y14	Z14	X15	Y15	Z15	X16	Y16	Z16	X17	Y17	Z17	X18	Y18	Z18	X19	Y19	Z19	X20	Y20	Z20	X21	Y21	Z21	X22	Y22	Z22
877	35.10001140901312	2.905388166175909	0.380306605256558	0.0301	2.855353073627712	0.4364494319835319	0.0301	2.6401711379616883	0.20072969520019818	0.129	2.4093607883814574	-0.015909550593417313	0.023	2.3249838537474536	-0.08027566567051803	0.2179	2.3113687509931182	-0.04654356289671442	0.1804	2.3809156514841323	-0.049968815632690594	-0.0119	2.9546712813265628	0.3299990544311639	0.0301	2.710547388306805	0.13281332348814007	0.129	2.592738884933666	0.02698358533709956	0.023	2.4665711096724308	-0.0365074221403932	0.2179	2.512730653506703	-0.0592636498329624	0.1804	2.5855157410667267	0.022537315509857752	-0.0119	3.218001996470778	0.6768799245368636	0.0008	3.3464298825042804	0.8148222645775609	0.0655	3.2198923680531175	0.7102822909499937	0.1076	3.0875340663967332	0.7590886478725244	-0.01275	2.8938849415983405	0.6121179391151961	0.0702	2.752438294844249	0.46275855476169525	0.1076	3.3045775121412744	0.545913086704763	-0.01275	3.16386376385664	0.34578922300766496	0.0702	3.0369751490719126	0.2031981943606313	0.1076
878	35.14003422703936	2.9045502765048696	0.37931546711548936	0.0301	2.8540574717038654	0.4361507577324123	0.0301	2.6338150858620786	0.19891546617750133	0.129	2.406809065882742	-0.016644398801329164	0.023	2.324429770553049	-0.08175059421975238	0.2179	2.311096405964893	-0.047198339347434455	0.1804	2.376400070266073	-0.05489847663626682	-0.0119	2.953105746368666	0.32845803456437583	0.0301	2.7045835535874696	0.12221319570066061	0.129	2.5995423363112296	0.02266033133856668	0.023	2.468858041518003	-0.044042396180029655	0.2179	2.512225748742838	-0.06698354542764132	0.1804	2.6000703081842143	0.02151764767706758	-0.0119	3.217370694847366	0.6763191635538315	0.0008	3.3501799562074748	0.8153880428314318	0.0655	3.2262924018691854	0.7120767321830421	0.1076	3.0907411053623144	0.7618658888164188	-0.01275	2.886203206826582	0.6141722544664764	0.0702	2.735335556530541	0.46380064476486954	0.1076	3.305964000276721	0.5445781078527487	-0.01275	3.1563560880362966	0.338375152553536	0.0702	3.0251413052940532	0.19300442125194195	0.1076
879	35.180057045065595	2.9030900540171496	0.3776817332168673	0.0301	2.852637532122502	0.43431224871219043	0.0301	2.6283907858560305	0.19564793062682848	0.129	2.406750627317097	-0.018496910298588975	0.023	2.3257885057274237	-0.0852616237667056	0.2179	2.309971491496104	-0.05084494319093005	0.1804	2.3754563240540825	-0.057281441987359086	-0.0119	2.9512161708100564	0.3265572287384003	0.0301	2.699143014421915	0.11301474360305178	0.129	2.5931184864238492	0.008585698774571996	0.023	2.4705949739576827	-0.06574386010812304	0.2179	2.5083013187672836	-0.08749824664693717	0.1804	2.5911892125043146	0.004922956025025832	-0.0119	3.217032858014139	0.6753603068359268	0.0008	3.3553906004145535	0.8149312110638329	0.0655	3.232443165203904	0.7071697770643667	0.1076	3.0957690130263105	0.7663820028088169	-0.01275	2.8795590533171005	0.6193410694797258	0.0702	2.717591791014434	0.4670652186792601	0.1076	3.308164774666211	0.5446327617841582	-0.01275	3.1532451761249294	0.33527773974553515	0.0702	3.017753236785618	0.18685082151784876	0.1076
880	35.22007986309184	2.8997898852079214	0.37487900814251657	0.0301	2.847634834344835	0.42949850247249843	0.0301	2.624127455950149	0.19096993686469635	0.129	2.408227004459028	-0.02019066440234658	0.023	2.32968481539693	-0.08914021896549681	0.2179	2.308602673102348	-0.05364498297977826	0.1804	2.3779048466123767	-0.05552189004512456	-0.0119	2.9484548959497343	0.32196684188207153	0.0301	2.6963692788191556	0.10454200874126764	0.129	2.5699810292732277	-0.0203729873381669	0.023	2.4594683117307055	-0.10124189681673952	0.2179	2.4941141579943755	-0.12250054241537343	0.1804	2.5562429953193337	-0.03210995068240959	-0.0119	3.219464906109913	0.6748805380438272	0.0008	3.3600233086632523	0.8115063442213861	0.0655	3.2374154419051524	0.6979756634869128	0.1076	3.0988732715988547	0.7696005245684115	-0.01275	2.874236980785386	0.6265692385914976	0.0702	2.7029594383283686	0.4704239302285237	0.1076	3.310009995284369	0.543775081174324	-0.01275	3.1532949858535764	0.3339244181782792	0.0702	3.0136135773427477	0.18546769607782643	0.1076
881	35.26010268111808	2.8939680990920746	0.3702476194455597	0.0301	2.838431638486613	0.4214712544469744	0.0301	2.620368379651203	0.1853261329382491	0.129	2.408503052234676	-0.019796177975547873	0.023	2.3328542555332743	-0.09146916319585095	0.2179	2.308009996682428	-0.05341356867382891	0.1804	2.380321851017315	-0.05288441370651791	-0.0119	2.9445722900862923	0.3141899150997724	0.0301	2.694565828738359	0.09638944431369667	0.129	2.532983382654876	-0.06350400328525778	0.023	2.430995394409827	-0.14314094558534624	0.2179	2.467169146179952	-0.16695480379030062	0.1804	2.507670781157036	-0.08307899434949459	-0.0119	3.22213188063821	0.674330226314836	0.0008	3.362498505281083	0.8064426031659917	0.0655	3.2387142970110627	0.6904526994556064	0.1076	3.09576650733086	0.7674003951157197	-0.01275	2.8682617186115156	0.6305528142367506	0.0702	2.6926976031492265	0.4729415858565158	0.1076	3.3083226101819307	0.538954775217602	-0.01275	3.1530939946476098	0.33138177523918805	0.0702	3.0102148702968066	0.18533782944768917	0.1076
882	35.30012549914432	2.8866793867231766	0.36325563510315956	0.0301	2.8285012380026564	0.41203559476546603	0.0301	2.6152933561736935	0.178627611471433	0.129	2.4075557049486256	-0.018129953353434966	0.023	2.3313781659285913	-0.09215143680345536	0.2179	2.3078212371017885	-0.051810825024294335	0.1804	2.3804676974996135	-0.05261458063243148	-0.0119	2.9393992932597115	0.30462591507597586	0.0301	2.6906553469704795	0.08842968753341791	0.129	2.494189500241199	-0.10975583945106168	0.023	2.3999436111068664	-0.18110274102484697	0.2179	2.4384396390363614	-0.20969959854395842	0.1804	2.46285935062654	-0.1332856093794652	-0.0119	3.2171538068504497	0.6691195874387469	0.0008	3.3622217479716734	0.8017917390244719	0.0655	3.234808822627065	0.6853678495804847	0.1076	3.087079081408976	0.7597160825050556	-0.01275	2.8610140270377764	0.6294330635213454	0.0702	2.6864309773712653	0.47506105433417034	0.1076	3.301043355209828	0.5300304317669972	-0.01275	3.150835139667518	0.3279437001831601	0.0702	3.0076656835589444	0.1846857670316859	0.1076
